<!--version="1.0" encoding="UTF-8" standalone="no"--><!-- Created with Inkscape (http://www.inkscape.org/) --><svg width="176.699" height="180.617" viewBox="0 0 46.752 47.788" version="1.1" id="svg1" xml:space="preserve" xmlns="http://www.w3.org/2000/svg"><g id="layer1" transform="translate(-56.397548,-33.462496)"><path style="fill: none; fill-opacity: 1; stroke: rgb(200, 149, 38); stroke-width: 0.396875; stroke-linecap: round; stroke-linejoin: round; stroke-dasharray: none; stroke-opacity: 1; paint-order: markers stroke fill;" d="M56.87 78.052c23.616 0 37.903-17.517 43.933-40.482 0 0 .582-1.588.058-2.002-.284-.226-.872-.032-1.054.283-.137.238-.04.692.213.795.24.098.62-.133.67-.397.05-.265-.233-.41-.473-.142" id="path1"/><path style="fill: none; fill-opacity: 1; stroke: rgb(200, 149, 38); stroke-width: 0.396875; stroke-linecap: round; stroke-linejoin: round; stroke-dasharray: none; stroke-opacity: 1; paint-order: markers stroke fill;" d="M79.209 71.438c-.001 0-1.836-2.612-.629-5.028 1.06-2.116 3.97-2.645 3.97-2.645s-2.381 1.587-1.852 3.44c1.058 2.91-1.49 4.232-1.49 4.232z" id="path2"/><path d="M89.792 61.383s1.852-2.464 3.606-1.587c1.058.53 2.91-1.323 2.91-1.323-1.852 5.82-6.516 2.91-6.516 2.91z" style="fill: none; fill-opacity: 1; stroke: rgb(200, 149, 38); stroke-width: 0.396875; stroke-linecap: round; stroke-linejoin: round; stroke-dasharray: none; stroke-opacity: 1; paint-order: markers stroke fill;" id="path1-6"/><path d="M82.51 69.221c0 .001 2.085-2.268 3.744-1.222 1.001.63 3.027-1.03 3.027-1.03-2.417 5.61-6.77 2.253-6.77 2.253z" style="fill: none; fill-opacity: 1; stroke: rgb(200, 149, 38); stroke-width: 0.396875; stroke-linecap: round; stroke-linejoin: round; stroke-dasharray: none; stroke-opacity: 1; paint-order: markers stroke fill;" id="path1-6-2"/><path style="fill: none; fill-opacity: 1; stroke: rgb(200, 149, 38); stroke-width: 0.396875; stroke-linecap: round; stroke-linejoin: round; stroke-dasharray: none; stroke-opacity: 1; paint-order: markers stroke fill;" d="M56.885 78.052s-1.124-2.709 1.059-3.969c2.182-1.26 6.35-1.323 6.35-1.323s-1.984.79-2.646 2.91c-.663 2.12-4.763 2.382-4.763 2.382z" id="path3"/><path style="fill: none; fill-opacity: 1; stroke: rgb(200, 149, 38); stroke-width: 0.396875; stroke-linecap: round; stroke-linejoin: round; stroke-dasharray: none; stroke-opacity: 1; paint-order: markers stroke fill;" d="M65.881 77.135c.001 0 .163-1.499 1.06-1.852.896-.354 1.554-.655 1.947-1.714.401 1.322.076 2.095-.36 2.63-.53.65-2.646.935-2.646.935" id="path4"/><path style="fill: none; fill-opacity: 1; stroke: rgb(200, 149, 38); stroke-width: 0.396875; stroke-linecap: round; stroke-linejoin: round; stroke-dasharray: none; stroke-opacity: 1; paint-order: markers stroke fill;" d="M65.881 77.258c.001 0 1.179 2.457 3.324 3.323 4.88 1.97 6.467-2.793 6.467-2.793s-2.645 1.734-4.497 0c-1.852-1.733-5.292-.529-5.292-.529z" id="path5"/><path style="fill: none; fill-opacity: 1; stroke: rgb(200, 149, 38); stroke-width: 0.396875; stroke-linecap: round; stroke-linejoin: round; stroke-dasharray: none; stroke-opacity: 1; paint-order: markers stroke fill;" d="M92.604 57.26s-1.22-.793-.794-2.38c.426-1.588 0-2.91 0-2.91.025-.005 1.059 1.058.794 2.27.265-1.349-.88-2.288-.794-2.27.853.172 1.588 1.027 1.588 2.116 0 1.535-.794 3.175-.794 3.175z" id="path6"/><path style="fill: none; fill-opacity: 1; stroke: rgb(200, 149, 38); stroke-width: 0.396875; stroke-linecap: round; stroke-linejoin: round; stroke-dasharray: none; stroke-opacity: 1; paint-order: markers stroke fill;" d="M82.285 63.765c.075.112-2.358 1.092-2.38 2.645" id="path7"/><path style="fill: none; fill-opacity: 1; stroke: rgb(200, 149, 38); stroke-width: 0.396875; stroke-linecap: round; stroke-linejoin: round; stroke-dasharray: none; stroke-opacity: 1; paint-order: markers stroke fill;" d="M98.16 46.038c1.24-1.698 1.059-3.44 3.44-3.175-1.323.529-.326 1.648-1.058 2.38-.733.733-1.588.795-2.382.795z" id="path8"/><path style="fill: none; fill-opacity: 1; stroke: rgb(200, 149, 38); stroke-width: 0.396875; stroke-linecap: round; stroke-linejoin: round; stroke-dasharray: none; stroke-opacity: 1; paint-order: markers stroke fill;" d="M98.425 45.244c0-2.646-1.588-3.175-2.117-4.763-.529-1.586.265-3.438 2.91-3.438-.793 1.058-.836 1.882-.264 2.646.794 1.058.149 3.5-.53 5.556z" id="path9"/><path style="fill: none; fill-opacity: 1; stroke: rgb(200, 149, 38); stroke-width: 0.396875; stroke-linecap: round; stroke-linejoin: round; stroke-dasharray: none; stroke-opacity: 1; paint-order: markers stroke fill;" d="M75.406 78.052s-.793 1.323-3.175 1.852" id="path10"/><path style="fill: none; fill-opacity: 1; stroke: rgb(200, 149, 38); stroke-width: 0.396875; stroke-linecap: round; stroke-linejoin: round; stroke-dasharray: none; stroke-opacity: 1; paint-order: markers stroke fill;" d="M75.406 73.819c0-.001 1.637-.48 2.382-.001 1.014.651 2.116.263 2.116-.568 0-.509-.626-.791-1.058-.756-.3.024-.67.336-.64.635.026.255.386.45.64.424.206-.02.475-.235.44-.44-.029-.158-.187-.31-.44-.204" id="path11"/><path style="fill: none; fill-opacity: 1; stroke: rgb(200, 149, 38); stroke-width: 0.396875; stroke-linecap: round; stroke-linejoin: round; stroke-dasharray: none; stroke-opacity: 1; paint-order: markers stroke fill;" d="M89.165 62.177s.485-.85.529-1.323c.04-.448-.395-.892-.265-1.323.071-.237.279-.528.528-.528.25 0 .49.283.53.53.031.194-.078.466-.265.528-.187.063-.498-.07-.53-.264-.02-.123.265-.265.265-.265" id="path12"/><path style="fill: none; fill-opacity: 1; stroke: rgb(200, 149, 38); stroke-width: 0.396875; stroke-linecap: round; stroke-linejoin: round; stroke-dasharray: none; stroke-opacity: 1; paint-order: markers stroke fill;" d="M93.927 55.033c.777-.529 1.043-.951 1.058-1.587.017-.687-.808-1.03-1.058-1.768-.132-.39-.082-.994.221-1.265a.55.55 0 0 1 .142-.093c.326-.147.823.15.96.48.107.258-.057.607-.265.794a.426.426 0 0 1-.378.084c-.14-.04-.292-.157-.317-.3-.035-.194.097-.425.264-.53" id="path13"/><path style="fill: none; fill-opacity: 1; stroke: rgb(200, 149, 38); stroke-width: 0.396875; stroke-linecap: round; stroke-linejoin: round; stroke-dasharray: none; stroke-opacity: 1; paint-order: markers stroke fill;" d="M61.501 77.787c.001 0 1.657-.049 2.265-.529.31-.244.63-.677.529-1.058-.082-.307-.477-.51-.794-.53-.394-.024-.907.166-1.058.53-.107.258.01.681.264.794.255.112.623-.05.763-.341" id="path14"/><path style="fill: none; fill-opacity: 1; stroke: rgb(200, 149, 38); stroke-width: 0.396875; stroke-linecap: round; stroke-linejoin: round; stroke-dasharray: none; stroke-opacity: 1; paint-order: markers stroke fill;" d="M98.425 44.45s.481-2.077 0-2.91" id="path31"/><path style="fill: none; fill-opacity: 1; stroke: rgb(200, 149, 38); stroke-width: 0.396875; stroke-linecap: round; stroke-linejoin: round; stroke-dasharray: none; stroke-opacity: 1; paint-order: markers stroke fill;" d="M56.885 78.052s.137-2.497 1.68-2.91" id="path32"/><path style="fill: none; fill-opacity: 1; stroke: rgb(200, 149, 38); stroke-width: 0.396875; stroke-linecap: round; stroke-linejoin: round; stroke-dasharray: none; stroke-opacity: 1; paint-order: markers stroke fill;" d="M100.542 38.63s.575-1.039.793-1.588c.18-.45.357-.911.42-1.392.071-.546-.353-1.188-.056-1.652.154-.241.507-.36.793-.333.17.016.36.126.43.282.052.118.012.276-.06.383-.08.12-.227.24-.37.222-.124-.015-.258-.14-.264-.264-.008-.125.04-.276.234-.294" id="path33"/></g></svg>