<!--version="1.0" encoding="UTF-8" standalone="no"--><!-- Created with Inkscape (http://www.inkscape.org/) --><svg width="174.594" height="175.295" viewBox="0 0 46.195 46.38" version="1.1" id="svg1" xml:space="preserve" xmlns="http://www.w3.org/2000/svg"><g id="layer1" transform="translate(-57.210913,16.408492)"><path style="fill: none; fill-opacity: 1; stroke: rgb(200, 149, 38); stroke-width: 0.396875; stroke-linecap: round; stroke-linejoin: round; stroke-dasharray: none; stroke-opacity: 1; paint-order: markers stroke fill;" d="M101.732 29.773c.108-35.93-29.426-42.735-40.617-44.024-2.117-.235-2.465-.856-3.171-.707-.772.163-.564.92-.265 1.199.268.25.921.027 1.057-.314.069-.172-.093-.457-.276-.48-.244-.03-.563-.02-.516.53" id="path15"/><path style="fill: none; fill-opacity: 1; stroke: rgb(200, 149, 38); stroke-width: 0.396875; stroke-linecap: round; stroke-linejoin: round; stroke-dasharray: none; stroke-opacity: 1; paint-order: markers stroke fill;" d="M97.483 8.885s-.537-1.312-.646-2.006c-.054-.35-.135-.733 0-1.06.096-.23.281-.504.53-.528.316-.032.712.221.793.529.05.191-.096.426-.264.53-.15.093-.405.125-.53 0-.124-.125 0-.53 0-.53" id="path16"/><path style="fill: none; fill-opacity: 1; stroke: rgb(200, 149, 38); stroke-width: 0.396875; stroke-linecap: round; stroke-linejoin: round; stroke-dasharray: none; stroke-opacity: 1; paint-order: markers stroke fill;" d="M82.02-7.673s-1.017-.583-1.322-1.058c-.196-.307-.279-.696-.265-1.06.01-.278.068-.596.265-.793.197-.198.522-.33.794-.265a.76.76 0 0 1 .529.53c.065.27-.037.63-.264.793-.143.103-.379.093-.529 0-.168-.104-.296-.335-.264-.53.02-.122.264-.264.264-.264" id="path17"/><path style="fill: none; fill-opacity: 1; stroke: rgb(200, 149, 38); stroke-width: 0.396875; stroke-linecap: round; stroke-linejoin: round; stroke-dasharray: none; stroke-opacity: 1; paint-order: markers stroke fill;" d="M70.38-12.435s-2.294-.43-3.552-.333c-1.264.097-2.221-1.03-3.178-.54-.262.133-.437.502-.39.793.062.37.45.65.795.794.244.1.579.153.794-.001.225-.164.412-.56.263-.795-.19-.3-.872-.434-1.058-.132-.084.135.264.397.264.397" id="path18"/><path style="fill: none; fill-opacity: 1; stroke: rgb(200, 149, 38); stroke-width: 0.396875; stroke-linecap: round; stroke-linejoin: round; stroke-dasharray: none; stroke-opacity: 1; paint-order: markers stroke fill;" d="M101.547 24.768s-.43-1.126-.872-1.632c-.338-.387-.836-.591-1.245-1.06-.406-.464-.383-1.002.053-1.438.187-.188.586-.163.794 0 .287.223.304.696.265 1.058-.022.196-.134.472-.554.064-.142-.137-.24-.593-.24-.593" id="path19"/><path style="fill: none; fill-opacity: 1; stroke: rgb(200, 149, 38); stroke-width: 0.396875; stroke-linecap: round; stroke-linejoin: round; stroke-dasharray: none; stroke-opacity: 1; paint-order: markers stroke fill;" d="M95.25 4.763s-.794-1.059-1.058-2.117c-.346-1.382.934-2.381 1.984-2.381-.798.208-1.111.82-.926 1.322.175.476.937.439 1.058 1.588.105.987-1.058 1.588-1.058 1.588z" id="path20"/><path style="fill: none; fill-opacity: 1; stroke: rgb(200, 149, 38); stroke-width: 0.396875; stroke-linecap: round; stroke-linejoin: round; stroke-dasharray: none; stroke-opacity: 1; paint-order: markers stroke fill;" d="M77.32-9.96c-4.03-1.545-4.824-.094-4.295 1.758 1.24-1.067 2.91 1.058 4.294-1.757z" id="path21"/><path style="fill: none; fill-opacity: 1; stroke: rgb(200, 149, 38); stroke-width: 0.396875; stroke-linecap: round; stroke-linejoin: round; stroke-dasharray: none; stroke-opacity: 1; paint-order: markers stroke fill;" d="M97.631 9.26c.001 0-.92-1.919-2.645-2.38-1.724-.463-3.704 1.648-3.704 1.648.001 0 1.589.01 1.853.468.265.458.794 1.748 2.382 1.323 1.587-.427 2.116-1.06 2.116-1.06z" id="path22"/><path style="fill: none; fill-opacity: 1; stroke: rgb(200, 149, 38); stroke-width: 0.396875; stroke-linecap: round; stroke-linejoin: round; stroke-dasharray: none; stroke-opacity: 1; paint-order: markers stroke fill;" d="M97.631 9.26c.001 0-1.586-1.68-2.91-1.68" id="path23"/><path style="fill: none; fill-opacity: 1; stroke: rgb(200, 149, 38); stroke-width: 0.396875; stroke-linecap: round; stroke-linejoin: round; stroke-dasharray: none; stroke-opacity: 1; paint-order: markers stroke fill;" d="M97.631 9.26c.001 0-1.05-.451-1.928-.243" id="path24"/><path style="fill: none; fill-opacity: 1; stroke: rgb(200, 149, 38); stroke-width: 0.396875; stroke-linecap: round; stroke-linejoin: round; stroke-dasharray: none; stroke-opacity: 1; paint-order: markers stroke fill;" d="M77.32-9.96s-.67.147-1.12.17c-.6.035-1.1-.874-2.381 0" id="path25"/><path style="fill: none; fill-opacity: 1; stroke: rgb(200, 149, 38); stroke-width: 0.396875; stroke-linecap: round; stroke-linejoin: round; stroke-dasharray: none; stroke-opacity: 1; paint-order: markers stroke fill;" d="M100.806 19.05s-.318-1.983.687-2.564c1.006-.58 1.165-1.67 1.165-1.67s.66 1.224.53 1.853c-.51 2.442-2.382 2.38-2.382 2.38z" id="path26"/><path style="fill: none; fill-opacity: 1; stroke: rgb(200, 149, 38); stroke-width: 0.396875; stroke-linecap: round; stroke-linejoin: round; stroke-dasharray: none; stroke-opacity: 1; paint-order: markers stroke fill;" d="M87.048-4.233s-1.162-.794-1.588-2.382c-.425-1.587 1.588-3.44 1.588-3.44s-.276 1.762.264 2.117c1.536 1.011-.264 3.705-.264 3.705z" id="path27"/><path style="fill: none; fill-opacity: 1; stroke: rgb(200, 149, 38); stroke-width: 0.396875; stroke-linecap: round; stroke-linejoin: round; stroke-dasharray: none; stroke-opacity: 1; paint-order: markers stroke fill;" d="M87.048-4.233s-.65-1.377-.794-2.117c-.075-.39-.027-1.19-.027-1.19" id="path28"/><path style="fill: none; fill-opacity: 1; stroke: rgb(200, 149, 38); stroke-width: 0.396875; stroke-linecap: round; stroke-linejoin: round; stroke-dasharray: none; stroke-opacity: 1; paint-order: markers stroke fill;" d="M90.223-1.323S88.229-2.91 86.254-2.38c-1.975.528-2.116 2.115-2.116 2.115s.529-.425 1.058-.283c.53.142 1.146 1.365 2.869 1.365 1.722 0 2.158-2.14 2.158-2.14z" id="path29"/><path style="fill: none; fill-opacity: 1; stroke: rgb(200, 149, 38); stroke-width: 0.396875; stroke-linecap: round; stroke-linejoin: round; stroke-dasharray: none; stroke-opacity: 1; paint-order: markers stroke fill;" d="M90.223-1.323S88.9.09 87.577-.265" id="path30"/><path style="fill: none; fill-opacity: 1; stroke: rgb(200, 149, 38); stroke-width: 0.396875; stroke-linecap: round; stroke-linejoin: round; stroke-dasharray: none; stroke-opacity: 1; paint-order: markers stroke fill;" d="M63.425-13.937s-.89-.178-1.223-.46c-.434-.367-1.065-.95-.854-1.478.116-.289.629-.425.895-.265.232.14.349.6.162.794-.14.146-.501.082-.597-.095-.075-.14.034-.365.195-.435" id="path34"/><path style="fill: none; fill-opacity: 1; stroke: rgb(200, 149, 38); stroke-width: 0.396875; stroke-linecap: round; stroke-linejoin: round; stroke-dasharray: none; stroke-opacity: 1; paint-order: markers stroke fill;" d="M69.585-12.7c-.529-.794-.987-.516-1.855-.864-.57-.23-.705-.748-.526-1.253.187-.527.794-.91.794-.91s-.123.469 0 .646c.43.618 1.587-.118 2.117.793.272.47-.073 1.316-.53 1.587z" id="path35"/><path style="fill: none; fill-opacity: 1; stroke: rgb(200, 149, 38); stroke-width: 0.396875; stroke-linecap: round; stroke-linejoin: round; stroke-dasharray: none; stroke-opacity: 1; paint-order: markers stroke fill;" d="M69.585-12.7s.282-1.323-.529-1.323" id="path36"/></g></svg>